<svg width="24" height="24" viewBox="0 0 24 24" fill="none" xmlns="http://www.w3.org/2000/svg">
<path d="M16.8109 18.3924C16.1182 18.9145 15.338 19.3267 14.4961 19.6029C15.069 19.113 15.5858 18.5595 16.0356 17.9533C16.3019 18.0871 16.5606 18.2337 16.8109 18.3924Z" fill="#041D55"/>
<path d="M12.5 19.796C13.5012 19.2168 14.3805 18.4503 15.0899 17.5444C14.2752 17.2466 13.4054 17.0632 12.5 17.0137V19.796Z" fill="#041D55"/>
<path d="M17.5996 17.7136C17.2774 17.4954 16.9418 17.2956 16.5943 17.1155C17.407 15.7531 17.9049 14.1811 17.9877 12.5H19.9846C19.8589 14.5386 18.9698 16.3706 17.5996 17.7136Z" fill="#041D55"/>
<path d="M15.678 16.6981C16.4348 15.4638 16.9024 14.033 16.9863 12.5H12.5V16.0123C13.6174 16.0673 14.6865 16.3057 15.678 16.6981Z" fill="#041D55"/>
<path d="M19.9846 11.5H17.9877C17.9049 9.81888 17.407 8.24691 16.5943 6.88448C16.9418 6.70442 17.2774 6.50457 17.5996 6.28643C18.9698 7.62946 19.8589 9.46145 19.9846 11.5Z" fill="#041D55"/>
<path d="M16.9863 11.5C16.9024 9.96702 16.4348 8.53621 15.678 7.30194C14.6865 7.69428 13.6174 7.9327 12.5 7.98772V11.5H16.9863Z" fill="#041D55"/>
<path d="M14.4961 4.39711C15.069 4.88701 15.5858 5.44052 16.0356 6.0467C16.3019 5.9129 16.5606 5.76627 16.8109 5.60763C16.1182 5.08549 15.338 4.67334 14.4961 4.39711Z" fill="#041D55"/>
<path d="M12.5 6.98635C13.4054 6.93677 14.2752 6.75336 15.0899 6.45557C14.3805 5.54969 13.5012 4.78321 12.5 4.20405V6.98635Z" fill="#041D55"/>
<path d="M9.50385 4.39712C8.662 4.67335 7.88176 5.0855 7.1891 5.60763C7.43944 5.76627 7.69814 5.9129 7.96441 6.0467C8.41424 5.44053 8.93104 4.88702 9.50385 4.39712Z" fill="#041D55"/>
<path d="M8.91012 6.45558C9.61954 5.54969 10.4988 4.7832 11.5 4.20404V6.98635C10.5946 6.93677 9.72481 6.75337 8.91012 6.45558Z" fill="#041D55"/>
<path d="M7.40569 6.88448C7.0582 6.70442 6.72262 6.50458 6.40044 6.28644C5.03024 7.62947 4.14109 9.46145 4.01538 11.5H6.01228C6.09506 9.81888 6.59299 8.24691 7.40569 6.88448Z" fill="#041D55"/>
<path d="M7.01365 11.5C7.0976 9.96702 7.56518 8.53621 8.32203 7.30194C9.31348 7.69428 10.3826 7.9327 11.5 7.98772V11.5H7.01365Z" fill="#041D55"/>
<path d="M6.01228 12.5H4.01538C4.14109 14.5386 5.03024 16.3705 6.40044 17.7136C6.72262 17.4954 7.0582 17.2956 7.40569 17.1155C6.59299 15.7531 6.09506 14.1811 6.01228 12.5Z" fill="#041D55"/>
<path d="M8.32203 16.6981C7.56518 15.4638 7.0976 14.033 7.01365 12.5H11.5V16.0123C10.3826 16.0673 9.31348 16.3057 8.32203 16.6981Z" fill="#041D55"/>
<path d="M7.96441 17.9533C8.41424 18.5595 8.93103 19.113 9.50385 19.6029C8.662 19.3267 7.88176 18.9145 7.1891 18.3924C7.43944 18.2337 7.69814 18.0871 7.96441 17.9533Z" fill="#041D55"/>
<path d="M8.91012 17.5444C9.72481 17.2466 10.5946 17.0632 11.5 17.0137V19.796C10.4988 19.2168 9.61954 18.4503 8.91012 17.5444Z" fill="#041D55"/>
<path fill-rule="evenodd" clip-rule="evenodd" d="M22 12C22 17.5228 17.5228 22 12 22C6.47715 22 2 17.5228 2 12C2 6.47715 6.47715 2 12 2C17.5228 2 22 6.47715 22 12ZM21 12C21 16.9706 16.9706 21 12 21C7.02944 21 3 16.9706 3 12C3 7.02944 7.02944 3 12 3C16.9706 3 21 7.02944 21 12Z" fill="#041D55"/>
</svg>
