<svg width="12" height="12" viewBox="0 0 12 12" fill="none" xmlns="http://www.w3.org/2000/svg">
<path d="M11.25 5.70834C11.252 6.47826 11.0721 7.23777 10.725 7.925C10.3134 8.74852 9.68069 9.44119 8.89768 9.92542C8.11467 10.4096 7.21231 10.6663 6.29167 10.6667C5.52174 10.6687 4.76223 10.4888 4.075 10.1417L0.75 11.25L1.85833 7.925C1.51121 7.23777 1.33133 6.47826 1.33333 5.70834C1.33369 4.78769 1.59036 3.88533 2.07459 3.10232C2.55882 2.31931 3.25148 1.68658 4.075 1.275C4.76223 0.927878 5.52174 0.747994 6.29167 0.750001H6.58333C7.7992 0.81708 8.94761 1.33028 9.80867 2.19134C10.6697 3.05239 11.1829 4.2008 11.25 5.41667V5.70834Z" stroke="white" stroke-linecap="round" stroke-linejoin="round"/>
</svg>
