
<svg width="17" height="17" viewBox="0 0 17 17" fill="none" xmlns="http://www.w3.org/2000/svg">
<path d="M12.75 5.66667C12.75 4.5395 12.3022 3.45849 11.5052 2.66146C10.7082 1.86443 9.62717 1.41667 8.5 1.41667C7.37283 1.41667 6.29183 1.86443 5.4948 2.66146C4.69777 3.45849 4.25 4.5395 4.25 5.66667C4.25 10.625 2.125 12.0417 2.125 12.0417H14.875C14.875 12.0417 12.75 10.625 12.75 5.66667Z" stroke="white" stroke-linecap="round" stroke-linejoin="round"/>
<path d="M9.72525 14.875C9.60071 15.0897 9.42197 15.2679 9.20691 15.3918C8.99185 15.5156 8.74802 15.5808 8.49983 15.5808C8.25165 15.5808 8.00782 15.5156 7.79275 15.3918C7.57769 15.2679 7.39895 15.0897 7.27441 14.875" stroke="white" stroke-linecap="round" stroke-linejoin="round"/>
</svg>
