<svg width="15" height="15" viewBox="0 0 15 15" fill="none" xmlns="http://www.w3.org/2000/svg">
<g clip-path="url(#clip0_22_1718)">
<path d="M9.5 10C10.3284 10 11 9.32843 11 8.5C11 7.67157 10.3284 7 9.5 7C8.67157 7 8 7.67157 8 8.5C8 9.32843 8.67157 10 9.5 10Z" stroke="white" stroke-linecap="round" stroke-linejoin="round"/>
<path d="M13.2 10C13.1334 10.1508 13.1136 10.3181 13.143 10.4803C13.1724 10.6425 13.2497 10.7922 13.365 10.91L13.395 10.94C13.488 11.0329 13.5617 11.1432 13.6121 11.2646C13.6624 11.386 13.6883 11.5161 13.6883 11.6475C13.6883 11.7789 13.6624 11.909 13.6121 12.0304C13.5617 12.1518 13.488 12.2621 13.395 12.355C13.3021 12.448 13.1918 12.5217 13.0704 12.5721C12.949 12.6224 12.8189 12.6483 12.6875 12.6483C12.5561 12.6483 12.426 12.6224 12.3046 12.5721C12.1832 12.5217 12.0729 12.448 11.98 12.355L11.95 12.325C11.8322 12.2097 11.6825 12.1324 11.5203 12.103C11.3581 12.0736 11.1908 12.0934 11.04 12.16C10.8921 12.2234 10.766 12.3286 10.6772 12.4628C10.5883 12.5969 10.5406 12.7541 10.54 12.915V13C10.54 13.2652 10.4346 13.5196 10.2471 13.7071C10.0596 13.8946 9.80522 14 9.54 14C9.27478 14 9.02043 13.8946 8.83289 13.7071C8.64536 13.5196 8.54 13.2652 8.54 13V12.955C8.53613 12.7895 8.48256 12.629 8.38626 12.4944C8.28995 12.3597 8.15537 12.2571 8 12.2C7.84919 12.1334 7.6819 12.1136 7.51971 12.143C7.35751 12.1724 7.20784 12.2497 7.09 12.365L7.06 12.395C6.96713 12.488 6.85684 12.5617 6.73544 12.6121C6.61404 12.6624 6.48392 12.6883 6.3525 12.6883C6.22108 12.6883 6.09096 12.6624 5.96956 12.6121C5.84816 12.5617 5.73787 12.488 5.645 12.395C5.55202 12.3021 5.47826 12.1918 5.42794 12.0704C5.37762 11.949 5.35171 11.8189 5.35171 11.6875C5.35171 11.5561 5.37762 11.426 5.42794 11.3046C5.47826 11.1832 5.55202 11.0729 5.645 10.98L5.675 10.95C5.79027 10.8322 5.86759 10.6825 5.897 10.5203C5.92641 10.3581 5.90656 10.1908 5.84 10.04C5.77662 9.89212 5.67138 9.76599 5.53723 9.67715C5.40309 9.58832 5.24589 9.54064 5.085 9.54H5C4.73478 9.54 4.48043 9.43464 4.29289 9.24711C4.10536 9.05957 4 8.80522 4 8.54C4 8.27478 4.10536 8.02043 4.29289 7.83289C4.48043 7.64536 4.73478 7.54 5 7.54H5.045C5.2105 7.53613 5.371 7.48256 5.50565 7.38626C5.6403 7.28995 5.74286 7.15537 5.8 7C5.86656 6.84919 5.88641 6.6819 5.857 6.51971C5.82759 6.35751 5.75027 6.20784 5.635 6.09L5.605 6.06C5.51202 5.96713 5.43826 5.85684 5.38794 5.73544C5.33762 5.61404 5.31171 5.48392 5.31171 5.3525C5.31171 5.22108 5.33762 5.09096 5.38794 4.96956C5.43826 4.84816 5.51202 4.73787 5.605 4.645C5.69787 4.55202 5.80816 4.47826 5.92956 4.42794C6.05096 4.37762 6.18108 4.35171 6.3125 4.35171C6.44392 4.35171 6.57404 4.37762 6.69544 4.42794C6.81684 4.47826 6.92713 4.55202 7.02 4.645L7.05 4.675C7.16784 4.79027 7.31751 4.86759 7.47971 4.897C7.6419 4.92641 7.80919 4.90656 7.96 4.84H8C8.14788 4.77662 8.27401 4.67138 8.36285 4.53723C8.45168 4.40309 8.49936 4.24589 8.5 4.085V4C8.5 3.73478 8.60536 3.48043 8.79289 3.29289C8.98043 3.10536 9.23478 3 9.5 3C9.76522 3 10.0196 3.10536 10.2071 3.29289C10.3946 3.48043 10.5 3.73478 10.5 4V4.045C10.5006 4.20589 10.5483 4.36309 10.6372 4.49723C10.726 4.63138 10.8521 4.73662 11 4.8C11.1508 4.86656 11.3181 4.88641 11.4803 4.857C11.6425 4.82759 11.7922 4.75027 11.91 4.635L11.94 4.605C12.0329 4.51202 12.1432 4.43826 12.2646 4.38794C12.386 4.33762 12.5161 4.31171 12.6475 4.31171C12.7789 4.31171 12.909 4.33762 13.0304 4.38794C13.1518 4.43826 13.2621 4.51202 13.355 4.605C13.448 4.69787 13.5217 4.80816 13.5721 4.92956C13.6224 5.05096 13.6483 5.18108 13.6483 5.3125C13.6483 5.44392 13.6224 5.57404 13.5721 5.69544C13.5217 5.81684 13.448 5.92713 13.355 6.02L13.325 6.05C13.2097 6.16784 13.1324 6.31751 13.103 6.47971C13.0736 6.6419 13.0934 6.80919 13.16 6.96V7C13.2234 7.14788 13.3286 7.27401 13.4628 7.36285C13.5969 7.45168 13.7541 7.49936 13.915 7.5H14C14.2652 7.5 14.5196 7.60536 14.7071 7.79289C14.8946 7.98043 15 8.23478 15 8.5C15 8.76522 14.8946 9.01957 14.7071 9.20711C14.5196 9.39464 14.2652 9.5 14 9.5H13.955C13.7941 9.50064 13.6369 9.54832 13.5028 9.63715C13.3686 9.72599 13.2634 9.85212 13.2 10V10Z" stroke="white" stroke-linecap="round" stroke-linejoin="round"/>
</g>
<defs>
<clipPath id="clip0_22_1718">
<rect width="15" height="15" fill="white"/>
</clipPath>
</defs>
</svg>
