<svg width="19" height="19" viewBox="0 0 19 19" fill="none" xmlns="http://www.w3.org/2000/svg">
<g style="mix-blend-mode:multiply">
<g style="mix-blend-mode:multiply">
<path d="M13.1989 18.9975L8.15801 15.878L3.12377 18.9975L4.40412 13.0249L0 8.98002L5.83194 8.40519L8.1513 2.78304L10.4774 8.40519L16.3093 8.97301L11.9119 13.0179L13.1989 18.9975Z" fill="#9E9E9E"/>
</g>
</g>
<path d="M15.2366 17.8268L9.69959 14.3919L4.1626 17.8268L5.57031 11.2583L0.730469 6.81388L7.1456 6.18297L9.69288 0L12.2469 6.18297L18.6553 6.80687L13.8222 11.2583L15.2366 17.8268Z" fill="url(#paint0_radial_65_1840)"/>
<path style="mix-blend-mode:screen" fill-rule="evenodd" clip-rule="evenodd" d="M4.78614 14.9246C9.41147 11.714 11.8917 8.53838 13.1922 6.2741L12.247 6.18296L9.69302 0L7.14573 6.18296L0.737305 6.81388L5.57044 11.2583L4.78614 14.9246Z" fill="url(#paint1_radial_65_1840)"/>
<defs>
<radialGradient id="paint0_radial_65_1840" cx="0" cy="0" r="1" gradientUnits="userSpaceOnUse" gradientTransform="translate(13.1116 2.30634) scale(14.667 15.3382)">
<stop offset="0.35" stop-color="#FFC200"/>
<stop offset="0.58" stop-color="#FFBB00"/>
<stop offset="0.9" stop-color="#FFA900"/>
<stop offset="1" stop-color="#FFA200"/>
</radialGradient>
<radialGradient id="paint1_radial_65_1840" cx="0" cy="0" r="1" gradientUnits="userSpaceOnUse" gradientTransform="translate(12.8972 -2.85314) scale(17.583 18.3877)">
<stop stop-color="#FFE699"/>
<stop offset="1"/>
</radialGradient>
</defs>
</svg>
