<svg width="14" height="14" viewBox="0 0 14 14" fill="none" xmlns="http://www.w3.org/2000/svg">
<path d="M9.3335 2.33334H10.5002C10.8096 2.33334 11.1063 2.45625 11.3251 2.67504C11.5439 2.89384 11.6668 3.19058 11.6668 3.5V11.6667C11.6668 11.9761 11.5439 12.2728 11.3251 12.4916C11.1063 12.7104 10.8096 12.8333 10.5002 12.8333H3.50016C3.19074 12.8333 2.894 12.7104 2.6752 12.4916C2.45641 12.2728 2.3335 11.9761 2.3335 11.6667V3.5C2.3335 3.19058 2.45641 2.89384 2.6752 2.67504C2.894 2.45625 3.19074 2.33334 3.50016 2.33334H4.66683" stroke="white" stroke-linecap="round" stroke-linejoin="round"/>
<path d="M8.74984 1.16666H5.24984C4.92767 1.16666 4.6665 1.42783 4.6665 1.75V2.91666C4.6665 3.23883 4.92767 3.5 5.24984 3.5H8.74984C9.072 3.5 9.33317 3.23883 9.33317 2.91666V1.75C9.33317 1.42783 9.072 1.16666 8.74984 1.16666Z" stroke="white" stroke-linecap="round" stroke-linejoin="round"/>
</svg>
